<mxfile host="Electron" modified="2024-09-27T18:51:40.088Z" agent="Mozilla/5.0 (Windows NT 10.0; Win64; x64) AppleWebKit/537.36 (KHTML, like Gecko) draw.io/24.6.4 Chrome/124.0.6367.207 Electron/30.0.6 Safari/537.36" etag="8ZQ6a32zy7k5T0TgkxVW" version="24.6.4" type="device">
  <diagram name="Страница — 1" id="__StUCf0k_5aFw-tDxNR">
    <mxGraphModel dx="311" dy="373" grid="1" gridSize="10" guides="1" tooltips="1" connect="1" arrows="1" fold="1" page="1" pageScale="1" pageWidth="827" pageHeight="1169" math="0" shadow="0">
      <root>
        <mxCell id="0" />
        <mxCell id="1" parent="0" />
        <mxCell id="NuLNSLsA0o37FPxD8XAW-5" value="ИН&lt;div&gt;ИН Магазина (FK)&lt;/div&gt;&lt;div&gt;Общая стоимость&lt;div&gt;Время приобретения&lt;/div&gt;&lt;/div&gt;" style="rounded=1;whiteSpace=wrap;html=1;align=left;" parent="1" vertex="1">
          <mxGeometry x="400" y="140" width="120" height="60" as="geometry" />
        </mxCell>
        <mxCell id="NuLNSLsA0o37FPxD8XAW-9" value="&lt;div&gt;ИН&lt;/div&gt;ИН Чека (FK)&lt;div&gt;Артикул товара (FK)&lt;/div&gt;&lt;div&gt;Количество&lt;br&gt;&lt;/div&gt;" style="rounded=1;whiteSpace=wrap;html=1;align=left;" parent="1" vertex="1">
          <mxGeometry x="400" y="370" width="120" height="60" as="geometry" />
        </mxCell>
        <mxCell id="NuLNSLsA0o37FPxD8XAW-12" value="ИН&amp;nbsp;" style="rounded=0;whiteSpace=wrap;html=1;align=left;" parent="1" vertex="1">
          <mxGeometry x="560" y="140" width="120" height="20" as="geometry" />
        </mxCell>
        <mxCell id="NuLNSLsA0o37FPxD8XAW-13" value="Адрес" style="rounded=0;whiteSpace=wrap;html=1;align=left;" parent="1" vertex="1">
          <mxGeometry x="560" y="160" width="120" height="20" as="geometry" />
        </mxCell>
        <mxCell id="NuLNSLsA0o37FPxD8XAW-15" value="&lt;div&gt;ИН&lt;/div&gt;ИН Магазина (FK)&lt;div&gt;Артикул товара (FK)&lt;/div&gt;&lt;div&gt;Стоимость за ед.&lt;div&gt;Количество&lt;/div&gt;&lt;/div&gt;" style="rounded=1;whiteSpace=wrap;html=1;align=left;" parent="1" vertex="1">
          <mxGeometry x="560" y="260" width="120" height="70" as="geometry" />
        </mxCell>
        <mxCell id="NuLNSLsA0o37FPxD8XAW-18" value="&lt;div&gt;Артикул&lt;/div&gt;" style="rounded=0;whiteSpace=wrap;html=1;align=left;" parent="1" vertex="1">
          <mxGeometry x="560" y="380" width="120" height="20" as="geometry" />
        </mxCell>
        <mxCell id="NuLNSLsA0o37FPxD8XAW-19" value="Название&lt;div&gt;Количество к оценке&lt;/div&gt;" style="rounded=0;whiteSpace=wrap;html=1;align=left;" parent="1" vertex="1">
          <mxGeometry x="560" y="400" width="120" height="30" as="geometry" />
        </mxCell>
        <mxCell id="PZ2cptobiEufz9DEuWk0-3" value="Чек" style="text;html=1;align=left;verticalAlign=middle;whiteSpace=wrap;rounded=0;" vertex="1" parent="1">
          <mxGeometry x="400" y="120" width="60" height="20" as="geometry" />
        </mxCell>
        <mxCell id="PZ2cptobiEufz9DEuWk0-4" value="Магазин" style="text;html=1;align=left;verticalAlign=middle;whiteSpace=wrap;rounded=0;" vertex="1" parent="1">
          <mxGeometry x="560" y="120" width="60" height="20" as="geometry" />
        </mxCell>
        <mxCell id="PZ2cptobiEufz9DEuWk0-5" value="Учёт" style="text;html=1;align=left;verticalAlign=middle;whiteSpace=wrap;rounded=0;" vertex="1" parent="1">
          <mxGeometry x="560" y="240" width="60" height="20" as="geometry" />
        </mxCell>
        <mxCell id="PZ2cptobiEufz9DEuWk0-6" value="Покупка" style="text;html=1;align=left;verticalAlign=middle;whiteSpace=wrap;rounded=0;" vertex="1" parent="1">
          <mxGeometry x="400" y="350" width="60" height="20" as="geometry" />
        </mxCell>
        <mxCell id="PZ2cptobiEufz9DEuWk0-7" value="Товар" style="text;html=1;align=left;verticalAlign=middle;whiteSpace=wrap;rounded=0;" vertex="1" parent="1">
          <mxGeometry x="560" y="360" width="60" height="20" as="geometry" />
        </mxCell>
        <mxCell id="PZ2cptobiEufz9DEuWk0-14" value="" style="endArrow=none;html=1;rounded=0;entryX=0;entryY=0;entryDx=0;entryDy=0;" edge="1" parent="1" source="PZ2cptobiEufz9DEuWk0-34" target="NuLNSLsA0o37FPxD8XAW-13">
          <mxGeometry width="50" height="50" relative="1" as="geometry">
            <mxPoint x="530.0000000000001" y="155" as="sourcePoint" />
            <mxPoint x="470" y="210" as="targetPoint" />
          </mxGeometry>
        </mxCell>
        <mxCell id="PZ2cptobiEufz9DEuWk0-16" value="" style="endArrow=none;html=1;rounded=0;exitX=0.5;exitY=0;exitDx=0;exitDy=0;entryX=0.5;entryY=1;entryDx=0;entryDy=0;" edge="1" parent="1" target="NuLNSLsA0o37FPxD8XAW-15">
          <mxGeometry width="50" height="50" relative="1" as="geometry">
            <mxPoint x="620" y="330" as="sourcePoint" />
            <mxPoint x="620" y="340" as="targetPoint" />
          </mxGeometry>
        </mxCell>
        <mxCell id="PZ2cptobiEufz9DEuWk0-17" value="" style="endArrow=none;html=1;rounded=0;entryX=0;entryY=0;entryDx=0;entryDy=0;" edge="1" parent="1" source="PZ2cptobiEufz9DEuWk0-39" target="NuLNSLsA0o37FPxD8XAW-19">
          <mxGeometry width="50" height="50" relative="1" as="geometry">
            <mxPoint x="540" y="400" as="sourcePoint" />
            <mxPoint x="630" y="330" as="targetPoint" />
          </mxGeometry>
        </mxCell>
        <mxCell id="PZ2cptobiEufz9DEuWk0-21" value="" style="endArrow=none;html=1;rounded=0;exitX=0;exitY=0.5;exitDx=0;exitDy=0;entryX=1;entryY=0.5;entryDx=0;entryDy=0;" edge="1" parent="1" source="NuLNSLsA0o37FPxD8XAW-5" target="NuLNSLsA0o37FPxD8XAW-5">
          <mxGeometry width="50" height="50" relative="1" as="geometry">
            <mxPoint x="470" y="390" as="sourcePoint" />
            <mxPoint x="470" y="210" as="targetPoint" />
          </mxGeometry>
        </mxCell>
        <mxCell id="PZ2cptobiEufz9DEuWk0-22" value="" style="endArrow=none;html=1;rounded=0;exitX=1;exitY=0.75;exitDx=0;exitDy=0;entryX=0;entryY=0.75;entryDx=0;entryDy=0;" edge="1" parent="1" source="NuLNSLsA0o37FPxD8XAW-9" target="NuLNSLsA0o37FPxD8XAW-9">
          <mxGeometry width="50" height="50" relative="1" as="geometry">
            <mxPoint x="470" y="380" as="sourcePoint" />
            <mxPoint x="470" y="210" as="targetPoint" />
          </mxGeometry>
        </mxCell>
        <mxCell id="PZ2cptobiEufz9DEuWk0-23" value="" style="endArrow=none;html=1;rounded=0;entryX=0.991;entryY=0.637;entryDx=0;entryDy=0;exitX=0.001;exitY=0.625;exitDx=0;exitDy=0;exitPerimeter=0;entryPerimeter=0;" edge="1" parent="1" source="NuLNSLsA0o37FPxD8XAW-15" target="NuLNSLsA0o37FPxD8XAW-15">
          <mxGeometry width="50" height="50" relative="1" as="geometry">
            <mxPoint x="630" y="270" as="sourcePoint" />
            <mxPoint x="630" y="190" as="targetPoint" />
          </mxGeometry>
        </mxCell>
        <mxCell id="PZ2cptobiEufz9DEuWk0-31" value="" style="endArrow=none;html=1;rounded=0;exitX=0.5;exitY=0;exitDx=0;exitDy=0;" edge="1" parent="1" source="NuLNSLsA0o37FPxD8XAW-18" target="PZ2cptobiEufz9DEuWk0-40">
          <mxGeometry width="50" height="50" relative="1" as="geometry">
            <mxPoint x="620" y="380" as="sourcePoint" />
            <mxPoint x="620" y="350" as="targetPoint" />
          </mxGeometry>
        </mxCell>
        <mxCell id="PZ2cptobiEufz9DEuWk0-33" value="" style="endArrow=none;html=1;rounded=0;entryX=0.5;entryY=1;entryDx=0;entryDy=0;exitX=0.5;exitY=0;exitDx=0;exitDy=0;" edge="1" parent="1" source="NuLNSLsA0o37FPxD8XAW-15">
          <mxGeometry width="50" height="50" relative="1" as="geometry">
            <mxPoint x="620" y="260" as="sourcePoint" />
            <mxPoint x="620" y="260" as="targetPoint" />
          </mxGeometry>
        </mxCell>
        <mxCell id="PZ2cptobiEufz9DEuWk0-34" value="" style="shape=waypoint;sketch=0;fillStyle=solid;size=6;pointerEvents=1;points=[];fillColor=none;resizable=0;rotatable=0;perimeter=centerPerimeter;snapToPoint=1;" vertex="1" parent="1">
          <mxGeometry x="510" y="150" width="20" height="20" as="geometry" />
        </mxCell>
        <mxCell id="PZ2cptobiEufz9DEuWk0-36" value="" style="shape=waypoint;sketch=0;fillStyle=solid;size=6;pointerEvents=1;points=[];fillColor=none;resizable=0;rotatable=0;perimeter=centerPerimeter;snapToPoint=1;" vertex="1" parent="1">
          <mxGeometry x="450" y="360" width="20" height="20" as="geometry" />
        </mxCell>
        <mxCell id="PZ2cptobiEufz9DEuWk0-37" value="" style="endArrow=none;html=1;rounded=0;entryX=0.5;entryY=1;entryDx=0;entryDy=0;" edge="1" parent="1" source="PZ2cptobiEufz9DEuWk0-36" target="NuLNSLsA0o37FPxD8XAW-5">
          <mxGeometry width="50" height="50" relative="1" as="geometry">
            <mxPoint x="470" y="290" as="sourcePoint" />
            <mxPoint x="520" y="240" as="targetPoint" />
          </mxGeometry>
        </mxCell>
        <mxCell id="PZ2cptobiEufz9DEuWk0-39" value="" style="shape=waypoint;sketch=0;fillStyle=solid;size=6;pointerEvents=1;points=[];fillColor=none;resizable=0;rotatable=0;perimeter=centerPerimeter;snapToPoint=1;" vertex="1" parent="1">
          <mxGeometry x="510" y="390" width="20" height="20" as="geometry" />
        </mxCell>
        <mxCell id="PZ2cptobiEufz9DEuWk0-40" value="" style="shape=waypoint;sketch=0;fillStyle=solid;size=6;pointerEvents=1;points=[];fillColor=none;resizable=0;rotatable=0;perimeter=centerPerimeter;snapToPoint=1;" vertex="1" parent="1">
          <mxGeometry x="610" y="320" width="20" height="20" as="geometry" />
        </mxCell>
        <mxCell id="PZ2cptobiEufz9DEuWk0-41" value="" style="shape=waypoint;sketch=0;fillStyle=solid;size=6;pointerEvents=1;points=[];fillColor=none;resizable=0;rotatable=0;perimeter=centerPerimeter;snapToPoint=1;" vertex="1" parent="1">
          <mxGeometry x="610" y="250" width="20" height="20" as="geometry" />
        </mxCell>
        <mxCell id="PZ2cptobiEufz9DEuWk0-42" value="" style="endArrow=none;html=1;rounded=0;entryX=0.5;entryY=1;entryDx=0;entryDy=0;" edge="1" parent="1" source="PZ2cptobiEufz9DEuWk0-41" target="NuLNSLsA0o37FPxD8XAW-13">
          <mxGeometry width="50" height="50" relative="1" as="geometry">
            <mxPoint x="580" y="280" as="sourcePoint" />
            <mxPoint x="630" y="230" as="targetPoint" />
          </mxGeometry>
        </mxCell>
      </root>
    </mxGraphModel>
  </diagram>
</mxfile>
